<svg width="170" height="28" viewBox="0 0 170 28" fill="none" xmlns="http://www.w3.org/2000/svg">
<path d="M11.3263 15.5968L0 2.59947H6.46154L14.2228 11.4748L21.9841 2.59947H28.2228L16.8594 15.5968V24.0265H11.3263V15.5968Z" fill="#0A0A0A"/>
<path d="M27.4528 13.2944C27.4528 6.4244 32.5775 2.22812 42.1955 2.22812C51.8136 2.22812 56.9382 6.4244 56.9382 13.2944C56.9382 20.1645 51.8136 24.3979 42.1955 24.3979C32.5775 24.3979 27.4528 20.1645 27.4528 13.2944ZM33.1345 13.2944C33.1345 17.1936 36.1054 19.6817 42.1955 19.6817C48.2857 19.6817 51.2566 17.1936 51.2566 13.2944C51.2566 9.39522 48.2857 6.9443 42.1955 6.9443C36.1054 6.9443 33.1345 9.39522 33.1345 13.2944Z" fill="#0A0A0A"/>
<path d="M74.5076 24.3979C65.0381 24.3979 60.8789 21.3156 60.8789 14.0743V2.59947H66.375V13.8515C66.375 17.7507 68.5288 19.7188 74.5076 19.7188C80.4864 19.7188 82.6031 17.7507 82.6031 13.8515V2.59947H88.0991V14.0743C88.0991 21.3156 83.9771 24.3979 74.5076 24.3979Z" fill="#0A0A0A"/>
<path d="M98.112 28C94.6955 24.1751 92.9873 19.2361 92.9873 13.9257C92.9873 8.61538 94.6955 3.67639 98.112 0H102.828C99.3003 3.82493 97.5921 8.65252 97.5921 13.9629C97.5921 19.2732 99.3003 24.1008 102.828 28H98.112Z" fill="#0A0A0A"/>
<path d="M108.646 11.3448H104.598V6.85146H108.646V2.59947H114.179V6.85146H127.882V11.3448H114.179V16.9708C114.179 19.2361 115.219 19.9788 120.083 19.9788C122.46 19.9788 125.616 19.6817 127.807 19.1989V23.5066C126.062 23.9894 122.757 24.435 119.823 24.435C111.134 24.435 108.646 22.6525 108.646 17.6764V11.3448Z" fill="#0A0A0A"/>
<path d="M137.705 24.0265H132.172V2.59947H137.705C137.705 2.59947 137.705 9.98076 137.705 14.7103C137.718 14.5659 137.687 11.6336 137.705 11.4933C139.5 9.28382 141.946 6.4801 147.397 6.4801C153.673 6.4801 156.718 9.71087 156.718 15.4668V24.0265H151.185V16.1724C151.185 12.756 149.105 11.2334 145.132 11.2334C141.864 11.2334 139.227 12.6679 137.705 14.7103C137.705 18.3485 137.705 24.0265 137.705 24.0265Z" fill="#0A0A0A"/>
<path d="M164.057 28H159.341C162.795 24.1751 164.577 19.3475 164.577 14.0371C164.577 8.72679 162.795 3.8992 159.341 0H164.057C167.474 3.82493 169.182 8.76392 169.182 14.0743C169.182 19.3846 167.474 24.3236 164.057 28Z" fill="#0A0A0A"/>
</svg>
